HIERARCHY
ROOT Model
{
	OFFSET 0 0 0
	CHANNELS 6 Xposition Yposition Zposition Zrotation Xrotation Yrotation
	JOINT Model1
	{
		OFFSET 0 -2.25479 2.99384
		CHANNELS 3 Zrotation Xrotation Yrotation
		JOINT Model2
		{
			OFFSET 12.111 0 0
			CHANNELS 3 Zrotation Xrotation Yrotation
			JOINT Model3
			{
				OFFSET 11.5502 0 0
				CHANNELS 3 Zrotation Xrotation Yrotation
				JOINT Model4
				{
					OFFSET 11.781 0 0
					CHANNELS 3 Zrotation Xrotation Yrotation
					JOINT Model5
					{
						OFFSET 20.0601 0 0
						CHANNELS 3 Zrotation Xrotation Yrotation
						JOINT Model6
						{
							OFFSET 11.1962 0 0
							CHANNELS 3 Zrotation Xrotation Yrotation
							End Site
							{
								OFFSET 0 0 0
							}
						}
					}
					JOINT Model7
					{
						OFFSET 10.8223 0.417534 3.51114
						CHANNELS 3 Zrotation Xrotation Yrotation
						JOINT Model8
						{
							OFFSET -6.07944 0 0
							CHANNELS 3 Zrotation Xrotation Yrotation
							JOINT Model9
							{
								OFFSET -0.277405 10.39 -0.051239
								CHANNELS 3 Zrotation Xrotation Yrotation
								JOINT Model10
								{
									OFFSET -3.43909 -0.282043 1.86679
									CHANNELS 3 Zrotation Xrotation Yrotation
									JOINT Model11
									{
										OFFSET 13.0269 0 0
										CHANNELS 3 Zrotation Xrotation Yrotation
										JOINT Model12
										{
											OFFSET 10.8866 0 0
											CHANNELS 3 Zrotation Xrotation Yrotation
											JOINT Model13
											{
												OFFSET 16.7317 0 0
												CHANNELS 3 Zrotation Xrotation Yrotation
												JOINT Model14
												{
													OFFSET 11.8292 0 0
													CHANNELS 3 Zrotation Xrotation Yrotation
													JOINT Model15
													{
														OFFSET 4.82751 -3.73566 -0.836517
														CHANNELS 3 Zrotation Xrotation Yrotation
														JOINT Model16
														{
															OFFSET 3.75311 -0.0582886 -0.0186462
															CHANNELS 3 Zrotation Xrotation Yrotation
															JOINT Model17
															{
																OFFSET 2.88689 0.0192337 0.014801
																CHANNELS 3 Zrotation Xrotation Yrotation
																End Site
																{
																	OFFSET 0 0 0
																}
															}
														}
													}
													JOINT Model18
													{
														OFFSET 9.72197 -3.06458 0.23877
														CHANNELS 3 Zrotation Xrotation Yrotation
														JOINT Model19
														{
															OFFSET 4.61131 0 0
															CHANNELS 3 Zrotation Xrotation Yrotation
															JOINT Model20
															{
																OFFSET 2.8969 -7.62939e-006 0
																CHANNELS 3 Zrotation Xrotation Yrotation
																End Site
																{
																	OFFSET 0 0 0
																}
															}
														}
													}
													JOINT Model21
													{
														OFFSET 9.54431 -0.745064 0.588928
														CHANNELS 3 Zrotation Xrotation Yrotation
														JOINT Model22
														{
															OFFSET 5.33978 0 0
															CHANNELS 3 Zrotation Xrotation Yrotation
															JOINT Model23
															{
																OFFSET 3.03619 7.62939e-006 0
																CHANNELS 3 Zrotation Xrotation Yrotation
																End Site
																{
																	OFFSET 0 0 0
																}
															}
														}
													}
													JOINT Model24
													{
														OFFSET 9.47758 1.51286 0.485107
														CHANNELS 3 Zrotation Xrotation Yrotation
														JOINT Model25
														{
															OFFSET 4.96136 7.62939e-006 0
															CHANNELS 3 Zrotation Xrotation Yrotation
															JOINT Model26
															{
																OFFSET 2.51965 0 0
																CHANNELS 3 Zrotation Xrotation Yrotation
																End Site
																{
																	OFFSET 0 0 0
																}
															}
														}
													}
													JOINT Model27
													{
														OFFSET 9.34247 3.34117 -0.239288
														CHANNELS 3 Zrotation Xrotation Yrotation
														JOINT Model28
														{
															OFFSET 3.28259 2.28882e-005 0
															CHANNELS 3 Zrotation Xrotation Yrotation
															JOINT Model29
															{
																OFFSET 2.1292 0 0
																CHANNELS 3 Zrotation Xrotation Yrotation
																End Site
																{
																	OFFSET 0 0 0
																}
															}
														}
													}
												}
											}
										}
									}
								}
							}
						}
					}
					JOINT Model30
					{
						OFFSET 10.8223 0.4179 -3.51108
						CHANNELS 3 Zrotation Xrotation Yrotation
						JOINT Model31
						{
							OFFSET 6.07944 0 0
							CHANNELS 3 Zrotation Xrotation Yrotation
							JOINT Model32
							{
								OFFSET 0.277405 -10.39 0.051239
								CHANNELS 3 Zrotation Xrotation Yrotation
								JOINT Model33
								{
									OFFSET 3.43909 0.282043 -1.86679
									CHANNELS 3 Zrotation Xrotation Yrotation
									JOINT Model34
									{
										OFFSET -13.0269 0 0
										CHANNELS 3 Zrotation Xrotation Yrotation
										JOINT Model35
										{
											OFFSET -10.8866 0 0
											CHANNELS 3 Zrotation Xrotation Yrotation
											JOINT Model36
											{
												OFFSET -16.7317 0 0
												CHANNELS 3 Zrotation Xrotation Yrotation
												JOINT Model37
												{
													OFFSET -11.8292 0 0
													CHANNELS 3 Zrotation Xrotation Yrotation
													JOINT Model38
													{
														OFFSET -4.82751 3.73566 0.836517
														CHANNELS 3 Zrotation Xrotation Yrotation
														JOINT Model39
														{
															OFFSET -3.75311 0.0582886 0.0186462
															CHANNELS 3 Zrotation Xrotation Yrotation
															JOINT Model40
															{
																OFFSET -2.88687 -0.0192337 -0.014801
																CHANNELS 3 Zrotation Xrotation Yrotation
																End Site
																{
																	OFFSET 0 0 0
																}
															}
														}
													}
													JOINT Model41
													{
														OFFSET -9.72198 3.06459 -0.23877
														CHANNELS 3 Zrotation Xrotation Yrotation
														JOINT Model42
														{
															OFFSET -4.6113 0 0
															CHANNELS 3 Zrotation Xrotation Yrotation
															JOINT Model43
															{
																OFFSET -2.89691 0 0
																CHANNELS 3 Zrotation Xrotation Yrotation
																End Site
																{
																	OFFSET 0 0 0
																}
															}
														}
													}
													JOINT Model44
													{
														OFFSET -9.54431 0.745064 -0.588928
														CHANNELS 3 Zrotation Xrotation Yrotation
														JOINT Model45
														{
															OFFSET -5.33978 0 0
															CHANNELS 3 Zrotation Xrotation Yrotation
															JOINT Model46
															{
																OFFSET -3.03619 -1.52588e-005 0
																CHANNELS 3 Zrotation Xrotation Yrotation
																End Site
																{
																	OFFSET 0 0 0
																}
															}
														}
													}
													JOINT Model47
													{
														OFFSET -9.4776 -1.51286 -0.485107
														CHANNELS 3 Zrotation Xrotation Yrotation
														JOINT Model48
														{
															OFFSET -4.96136 -1.52588e-005 0
															CHANNELS 3 Zrotation Xrotation Yrotation
															JOINT Model49
															{
																OFFSET -2.51965 0 0
																CHANNELS 3 Zrotation Xrotation Yrotation
																End Site
																{
																	OFFSET 0 0 0
																}
															}
														}
													}
													JOINT Model50
													{
														OFFSET -9.34247 -3.34118 0.239288
														CHANNELS 3 Zrotation Xrotation Yrotation
														JOINT Model51
														{
															OFFSET -3.28259 -2.28882e-005 0
															CHANNELS 3 Zrotation Xrotation Yrotation
															JOINT Model52
															{
																OFFSET -2.12921 0 0
																CHANNELS 3 Zrotation Xrotation Yrotation
																End Site
																{
																	OFFSET 0 0 0
																}
															}
														}
													}
												}
											}
										}
									}
								}
							}
						}
					}
				}
			}
		}
	}
	JOINT Model53
	{
		OFFSET 4.38025 -2.14632 -1.11517
		CHANNELS 3 Zrotation Xrotation Yrotation
		JOINT Model54
		{
			OFFSET 0 0 4.94998
			CHANNELS 3 Zrotation Xrotation Yrotation
			JOINT Model55
			{
				OFFSET 18.5642 0 0
				CHANNELS 3 Zrotation Xrotation Yrotation
				JOINT Model56
				{
					OFFSET 21.2884 0 0
					CHANNELS 3 Zrotation Xrotation Yrotation
					JOINT Model57
					{
						OFFSET 30.261 0 0
						CHANNELS 3 Zrotation Xrotation Yrotation
						JOINT Model58
						{
							OFFSET 11.7259 0 0
							CHANNELS 3 Zrotation Xrotation Yrotation
							JOINT Model59
							{
								OFFSET 10.682 0 0
								CHANNELS 3 Zrotation Xrotation Yrotation
								End Site
								{
									OFFSET 0 0 0
								}
							}
						}
					}
				}
			}
		}
	}
	JOINT Model60
	{
		OFFSET -4.38025 -2.14632 -1.11517
		CHANNELS 3 Zrotation Xrotation Yrotation
		JOINT Model61
		{
			OFFSET 0 0 -4.94998
			CHANNELS 3 Zrotation Xrotation Yrotation
			JOINT Model62
			{
				OFFSET -18.5642 0 0
				CHANNELS 3 Zrotation Xrotation Yrotation
				JOINT Model63
				{
					OFFSET -21.2884 0 0
					CHANNELS 3 Zrotation Xrotation Yrotation
					JOINT Model64
					{
						OFFSET -30.261 0 0
						CHANNELS 3 Zrotation Xrotation Yrotation
						JOINT Model65
						{
							OFFSET -11.7259 0 0
							CHANNELS 3 Zrotation Xrotation Yrotation
							JOINT Model66
							{
								OFFSET -10.682 0 0
								CHANNELS 3 Zrotation Xrotation Yrotation
								End Site
								{
									OFFSET 0 0 0
								}
							}
						}
					}
				}
			}
		}
	}
}
MOTION
Frames: 4
Frame Time: 0.033333
-510.917 151.679 -595.981 62.7954 -11.3749 86.4443 -180 4.29621e-031 -90 0.346886 0.755083 -0.23656 0.696972 1.50828 -0.47775 0.696972 1.50871 -0.477755 1.87204 -16.2058 24.0634 5.03149 -10.2453 -29.8543 120.092 75.5343 58.4939 -8.25861 -0.545696 1.55389 -167.277 84.4999 48.8109 -165.617 -7.19752 2.60569 3.74808e-006 13.3727 3.06134e-005 -24.3055 -11.9418 -6.48615 2.84791e-007 -18.4223 1.11945e-007 1.38123 0.0670579 5.55876 -72.0648 39.0385 39.3397 33.3638 2.10362 14.835 0.588947 0.308273 6.35287 -99.6409 81.413 100.35 -0.0181409 2.77423e-005 -0.117315 -0.124139 0.00241107 -0.799296 -79.8382 79.5773 80.5374 -0.000225747 -0.000220959 2.23451e-005 -0.000956187 0.000122846 -2.71167e-005 -66.7416 80.4058 67.2171 -0.000437097 1.59096e-005 -2.71713e-005 -0.000136556 -0.00010934 -5.44391e-005 -6.42159 81.2158 8.01779 -0.000218515 1.68646e-005 0.000212296 0.000901654 -0.000184861 -0.000218355 -59.9282 75.5373 58.5147 21.3172 -5.34603 -3.8331 -167.277 84.4999 48.8109 127.708 -39.5365 -55.4088 4.00414e-005 -48.6967 4.40186e-005 -128.979 5.04428 0.475579 -4.55175e-006 7.97398 1.91341e-006 -8.82177 1.62673 -20.8568 -72.0648 39.0385 39.3397 33.3638 2.10361 14.835 0.588946 0.308273 6.35287 -99.6409 81.413 100.35 -0.0181409 3.00473e-005 -0.117315 -0.124139 0.00241109 -0.799296 -79.8382 79.5773 80.5374 -0.000260658 -0.000218597 2.34257e-005 -0.000956242 0.000122955 -2.75168e-005 -66.7416 80.4058 67.2171 -0.000437149 1.485e-005 -2.74657e-005 -0.000136627 -0.000109325 -5.48379e-005 -6.42159 81.2158 8.01779 -0.000218594 1.95504e-005 0.000212163 0.000901545 -0.000191283 -0.000218748 0.000811311 0.56661 89.91 -36.6762 -5.3502 -49.376 1.16059e-006 8.81995 -2.48634e-008 34.912 -8.23137 -0.0047754 -1.58782e-007 -12.4128 -1.4017e-007 -39.2507 2.23635 -1.81134 -43.0051 -19.0147 -1.49819 -180 -0.566579 -90.09 -76.0004 6.65578 -38.0427 -2.22197e-008 2.09883 -5.36177e-010 28.1673 0.296898 1.56815 2.88756e-007 0.393086 -3.20404e-007 -36.8213 -7.88351 7.94444 -35.4947 5.23123e-008 -2.36561e-007 
-510.62 150.967 -592.109 62.7654 -3.43408 84.4799 -180 4.29621e-031 -90 0.52285 1.85209 -0.58697 1.06549 3.69821 -1.19177 1.06549 3.69865 -1.19178 -8.39937 -20.7391 16.3191 6.77894 -15.1758 -25.3471 120.092 75.5343 58.4939 -12.0688 -1.42484 1.85436 -167.277 84.4999 48.8109 -177.2 -7.1612 0.660706 3.77057e-006 13.3318 3.06082e-005 -37.7242 -7.04828 0.375883 2.70349e-007 -11.1508 1.08252e-007 -1.17928 -0.027339 2.65597 -72.0648 39.0385 39.3397 33.3638 2.10362 14.835 0.588947 0.308273 6.35287 -99.6409 81.413 100.35 -0.0181409 2.77423e-005 -0.117315 -0.124139 0.00241107 -0.799296 -79.8382 79.5773 80.5374 -0.000225747 -0.000220959 2.23451e-005 -0.000956187 0.000122846 -2.71167e-005 -66.7416 80.4058 67.2171 -0.000437097 1.59096e-005 -2.71713e-005 -0.000136556 -0.00010934 -5.44391e-005 -6.42159 81.2158 8.01779 -0.000218515 1.68646e-005 0.000212296 0.000901654 -0.000184861 -0.000218355 -59.9282 75.5373 58.5147 18.8823 5.02514 -2.09039 -167.277 84.4999 48.8109 142.668 -42.1864 -50.3983 3.35389e-005 -42.4378 3.93684e-005 -114.092 4.54119 0.557932 -4.51395e-006 6.85018 1.90853e-006 -5.43904 1.08262 -22.4989 -72.0648 39.0385 39.3397 33.3638 2.10361 14.835 0.588946 0.308273 6.35287 -99.6409 81.413 100.35 -0.0181409 3.00473e-005 -0.117315 -0.124139 0.00241109 -0.799296 -79.8382 79.5773 80.5374 -0.000260658 -0.000218597 2.34257e-005 -0.000956242 0.000122955 -2.75168e-005 -66.7416 80.4058 67.2171 -0.000437149 1.485e-005 -2.74657e-005 -0.000136627 -0.000109325 -5.48379e-005 -6.42159 81.2158 8.01779 -0.000218594 1.95504e-005 0.000212163 0.000901545 -0.000191283 -0.000218748 0.000811311 0.56661 89.91 -49.8007 -0.213951 -46.0736 1.15965e-006 6.67508 -2.47371e-008 45.234 -1.96219 -0.00587737 -1.35892e-007 -3.02753 -1.37084e-007 -40.7958 3.44546 -2.92083 -43.299 -19.8845 -1.65878 -180 -0.566579 -90.09 -68.2587 4.65736 -45.8256 -2.22185e-008 2.23162 -5.36224e-010 11.4176 -2.65802 1.38059 2.64133e-007 -4.0035 -3.21181e-007 -24.9407 -7.37983 9.76961 -35.4947 6.89748e-008 -2.9629e-007 
-510.908 149.21 -587.922 63.2674 4.62901 84.2662 -180 4.29621e-031 -90 0.644087 2.53693 -0.735304 1.32267 5.06477 -1.50134 1.32268 5.06521 -1.50135 -9.6948 -23.297 14.1271 4.93714 -17.9414 -19.6688 120.092 75.5343 58.4939 -10.9829 1.75552 2.99172 -167.277 84.4999 48.8109 170.128 -0.685362 4.92692 -2.57931e-007 20.4171 3.17798e-005 -54.5958 -5.54892 0.499065 2.66224e-007 -8.99365 1.0753e-007 -1.60823 0.0408106 -2.90704 -72.0648 39.0385 39.3397 33.3638 2.10362 14.835 0.588947 0.308273 6.35287 -99.6409 81.413 100.35 -0.0181409 2.77423e-005 -0.117315 -0.124139 0.00241107 -0.799296 -79.8382 79.5773 80.5374 -0.000225747 -0.000220959 2.23451e-005 -0.000956187 0.000122846 -2.71167e-005 -66.7416 80.4058 67.2171 -0.000437097 1.59096e-005 -2.71713e-005 -0.000136556 -0.00010934 -5.44391e-005 -6.42159 81.2158 8.01779 -0.000218515 1.68646e-005 0.000212296 0.000901654 -0.000184861 -0.000218355 -59.9282 75.5373 58.5147 15.8142 8.40757 -0.90554 -167.277 84.4999 48.8109 162.242 -43.2859 -41.3072 2.64209e-005 -33.7964 3.49622e-005 -96.5456 -8.27515 0.611328 -3.8582e-006 -12.7309 1.94267e-006 1.9999 -0.532925 -29.84 -72.0648 39.0385 39.3397 33.3638 2.10361 14.835 0.588946 0.308273 6.35287 -99.6409 81.413 100.35 -0.0181409 3.00473e-005 -0.117315 -0.124139 0.00241109 -0.799296 -79.8382 79.5773 80.5374 -0.000260658 -0.000218597 2.34257e-005 -0.000956242 0.000122955 -2.75168e-005 -66.7416 80.4058 67.2171 -0.000437149 1.485e-005 -2.74657e-005 -0.000136627 -0.000109325 -5.48379e-005 -6.42159 81.2158 8.01779 -0.000218594 1.95504e-005 0.000212163 0.000901545 -0.000191283 -0.000218748 0.000811311 0.56661 89.91 -66.3304 4.87788 -42.5787 1.15852e-006 4.07385 -2.46316e-008 58.8947 3.20033 -0.00710016 -1.17405e-007 4.69675 -1.37354e-007 -45.905 -1.20947 0.934461 -38.8648 -9.24378 -0.0551153 -180 -0.566579 -90.09 -67.8243 3.25389 -51.5866 -2.22418e-008 -0.263692 -5.35823e-010 10.7714 -2.75118 -0.431633 2.63361e-007 -4.1409 -3.21235e-007 -16.3191 -8.19482 12.9355 -35.4947 -1.45481e-007 -2.90925e-007 
-511.35 147.239 -584.121 63.4846 8.96148 86.1437 -180 4.29621e-031 -90 0.572699 2.75943 -0.471283 1.17016 5.51346 -0.971884 1.17016 5.5139 -0.971893 -6.61093 -24.1603 17.825 4.776 -18.3713 -15.1993 120.092 75.5343 58.4939 -7.293 6.28987 3.96041 -167.277 84.4999 48.8109 154.833 3.04784 13.8739 -2.79573e-006 24.5815 3.27516e-005 -68.8989 -1.06796 0.568352 2.53575e-007 -2.24315 1.0629e-007 -0.682745 0.0550797 -9.22429 -72.0648 39.0385 39.3397 33.3638 2.10362 14.835 0.588947 0.308273 6.35287 -99.6409 81.413 100.35 -0.0181409 2.77423e-005 -0.117315 -0.124139 0.00241107 -0.799296 -79.8382 79.5773 80.5374 -0.000225747 -0.000220959 2.23451e-005 -0.000956187 0.000122846 -2.71167e-005 -66.7416 80.4058 67.2171 -0.000437097 1.59096e-005 -2.71713e-005 -0.000136556 -0.00010934 -5.44391e-005 -6.42159 81.2158 8.01779 -0.000218515 1.68646e-005 0.000212296 0.000901654 -0.000184861 -0.000218355 -59.9282 75.5373 58.5147 13.7894 12.5524 0.323393 -167.277 84.4999 48.8109 169.414 -37.7481 -41.6959 1.80858e-005 -20.9303 3.11068e-005 -67.7417 -28.5472 0.643075 -2.49008e-006 -43.4687 2.61096e-006 3.24229 -0.933332 -32.1109 -72.0648 39.0385 39.3397 33.3638 2.10361 14.835 0.588946 0.308273 6.35287 -99.6409 81.413 100.35 -0.0181409 3.00473e-005 -0.117315 -0.124139 0.00241109 -0.799296 -79.8382 79.5773 80.5374 -0.000260658 -0.000218597 2.34257e-005 -0.000956242 0.000122955 -2.75168e-005 -66.7416 80.4058 67.2171 -0.000437149 1.485e-005 -2.74657e-005 -0.000136627 -0.000109325 -5.48379e-005 -6.42159 81.2158 8.01779 -0.000218594 1.95504e-005 0.000212163 0.000901545 -0.000191283 -0.000218748 0.000811311 0.56661 89.91 -81.692 8.05113 -40.6044 1.15693e-006 0.371074 -2.45699e-008 71.1882 5.69184 -0.00788399 -1.08384e-007 8.42204 -1.38385e-007 -50.87 -5.45384 3.81634 -35.4947 8.95326e-007 5.15736e-007 -180 -0.566579 -90.09 -72.1357 5.67111 -54.2019 -2.22419e-008 -0.272289 -5.35823e-010 23.461 -2.63587 0.0965136 2.64174e-007 -3.99624 -3.21178e-007 -13.3031 -11.1905 18.1061 -35.4961 -0.0038157 -2.37394e-007 
